<svg xmlns="http://www.w3.org/2000/svg" version="1.1" xmlns:xlink="http://www.w3.org/1999/xlink" width="1000" height="1000"><g clip-path="url(#SvgjsClipPath1534)"><rect width="1000" height="1000" fill="#000000"></rect><g transform="matrix(5,0,0,5,0,200)"><svg xmlns="http://www.w3.org/2000/svg" version="1.1" xmlns:xlink="http://www.w3.org/1999/xlink" width="200" height="120"><svg viewBox="0 0 200 120" xmlns="http://www.w3.org/2000/svg">
  <g stroke-width="3">
    <circle cx="60" cy="60" r="40" fill="black" stroke="#3399ff" stroke-width="8"></circle>
    <line x1="100" y1="60" x2="130" y2="30" stroke="white"></line>
    <line x1="100" y1="60" x2="130" y2="60" stroke="white"></line>
    <line x1="100" y1="60" x2="130" y2="90" stroke="white"></line>
    <circle cx="150" cy="30" r="18" fill="none" stroke="white"></circle>
    <circle cx="150" cy="60" r="18" fill="none" stroke="white"></circle>
    <circle cx="150" cy="90" r="18" fill="none" stroke="white"></circle>
    <g fill="none" stroke="white" stroke-linecap="round">
      <circle cx="145" cy="30" r="3"></circle>
      <circle cx="155" cy="30" r="3"></circle>
      <line x1="145" y1="30" x2="155" y2="30"></line>
      <path d="M 150 52 l 6 10 h -12 z"></path>
      <circle cx="150" cy="85" r="3"></circle>
      <circle cx="144" cy="95" r="3"></circle>
      <circle cx="156" cy="95" r="3"></circle>
      <line x1="150" y1="85" x2="144" y2="95"></line>
      <line x1="150" y1="85" x2="156" y2="95"></line>
    </g>
  </g>
</svg></svg></g></g><defs><clipPath id="SvgjsClipPath1534"><rect width="1000" height="1000" x="0" y="0" rx="500" ry="500"></rect></clipPath></defs></svg>